<svg width="500" height="160" viewBox="0 0 500 160" fill="none" xmlns="http://www.w3.org/2000/svg">
<g clip-path="url(#clip0_2744_71411)">
<path d="M0 4C0 1.79086 1.79086 0 4 0H496C498.209 0 500 1.79086 500 4V160H0V4Z" fill="#FF7E41"/>
<circle cx="84" cy="94" r="116" fill="#FEBD02" fill-opacity="0.3"/>
<path d="M256.778 36.25H206.556C203.089 36.25 200.278 39.0488 200.278 42.5V117.5C200.278 120.957 203.089 123.75 206.556 123.75H252.109C253.855 126.055 256.248 128.105 258.681 129.863C258.073 129.941 257.425 130 256.778 130H206.556C199.621 130 194 124.395 194 117.5V42.5C194 35.5957 199.621 30 206.556 30H256.778C263.703 30 269.333 35.5957 269.333 42.5V68.7891C267.136 69.4141 265.037 70.2344 263.056 71.25V42.5C263.056 39.0488 260.25 36.25 256.778 36.25ZM206.556 58.125C206.556 56.4062 207.96 55 209.694 55H253.639C255.365 55 256.778 56.4062 256.778 58.125C256.778 59.8438 255.365 61.25 253.639 61.25H209.694C207.96 61.25 206.556 59.8438 206.556 58.125ZM247.361 73.75C249.087 73.75 250.5 75.1562 250.5 76.875C250.5 78.5938 249.087 80 247.361 80H209.694C207.96 80 206.556 78.5938 206.556 76.875C206.556 75.1562 207.96 73.75 209.694 73.75H247.361ZM234.806 92.5C236.532 92.5 237.944 93.9062 237.944 95.625C237.944 97.3438 236.532 98.75 234.806 98.75H209.694C207.96 98.75 206.556 97.3438 206.556 95.625C206.556 93.9062 207.96 92.5 209.694 92.5H234.806ZM287.519 93.418C288.736 92.1875 290.737 92.1875 291.953 93.418C293.189 94.6289 293.189 96.6211 291.953 97.832L277.828 111.895C276.612 113.125 274.611 113.125 273.394 111.895L265.547 104.082C264.311 102.871 264.311 100.879 265.547 99.668C266.763 98.4375 268.764 98.4375 269.981 99.668L275.611 105.273L287.519 93.418ZM250.5 101.875C250.5 86.3477 263.154 73.75 278.75 73.75C294.346 73.75 307 86.3477 307 101.875C307 117.402 294.346 130 278.75 130C263.154 130 250.5 117.402 250.5 101.875ZM278.75 123.75C290.894 123.75 300.722 113.965 300.722 101.875C300.722 89.7852 290.894 80 278.75 80C266.606 80 256.778 89.7852 256.778 101.875C256.778 113.965 266.606 123.75 278.75 123.75Z" fill="black"/>
<rect x="94.5" y="48" width="101" height="20" rx="3" fill="black"/>
<path d="M107.536 57.2773V60.8066C107.405 60.9801 107.2 61.1706 106.92 61.3779C106.645 61.5811 106.279 61.7567 105.822 61.9048C105.365 62.0529 104.796 62.127 104.115 62.127C103.535 62.127 103.004 62.0296 102.521 61.835C102.039 61.6361 101.622 61.3462 101.271 60.9653C100.924 60.5845 100.655 60.1211 100.465 59.5752C100.274 59.0251 100.179 58.3988 100.179 57.6963V57.0552C100.179 56.3569 100.266 55.7349 100.439 55.189C100.617 54.6388 100.871 54.1733 101.201 53.7925C101.531 53.4116 101.929 53.1239 102.395 52.9292C102.864 52.7303 103.395 52.6309 103.988 52.6309C104.745 52.6309 105.372 52.7578 105.867 53.0117C106.366 53.2614 106.751 53.6084 107.022 54.0527C107.293 54.4971 107.464 55.0049 107.536 55.5762H105.975C105.924 55.2546 105.824 54.9668 105.676 54.7129C105.532 54.459 105.325 54.2601 105.054 54.1162C104.788 53.9681 104.441 53.894 104.013 53.894C103.645 53.894 103.321 53.9639 103.042 54.1035C102.763 54.2432 102.53 54.4484 102.344 54.7192C102.162 54.9901 102.024 55.3201 101.931 55.7095C101.838 56.0988 101.792 56.5431 101.792 57.0425V57.6963C101.792 58.2041 101.844 58.6548 101.95 59.0483C102.06 59.4419 102.217 59.7741 102.42 60.0449C102.627 60.3158 102.879 60.521 103.175 60.6606C103.472 60.7961 103.806 60.8638 104.178 60.8638C104.542 60.8638 104.84 60.8341 105.073 60.7749C105.306 60.7114 105.49 60.6374 105.625 60.5527C105.765 60.4639 105.873 60.3792 105.949 60.2988V58.4644H104.026V57.2773H107.536ZM110.485 56.4395V62H108.955V55.1318H110.415L110.485 56.4395ZM112.586 55.0874L112.573 56.5093C112.48 56.4924 112.378 56.4797 112.268 56.4712C112.162 56.4627 112.057 56.4585 111.951 56.4585C111.689 56.4585 111.458 56.4966 111.259 56.5728C111.06 56.6447 110.893 56.7505 110.758 56.8901C110.626 57.0256 110.525 57.1906 110.453 57.3853C110.381 57.5799 110.339 57.7979 110.326 58.0391L109.977 58.0645C109.977 57.6328 110.019 57.2329 110.104 56.8647C110.188 56.4966 110.315 56.1729 110.485 55.8936C110.658 55.6143 110.874 55.3963 111.132 55.2397C111.394 55.0832 111.697 55.0049 112.04 55.0049C112.133 55.0049 112.232 55.0133 112.338 55.0303C112.448 55.0472 112.531 55.0662 112.586 55.0874ZM116.988 60.6226V57.3472C116.988 57.1017 116.943 56.8901 116.854 56.7124C116.766 56.5347 116.63 56.3971 116.448 56.2998C116.27 56.2025 116.046 56.1538 115.775 56.1538C115.526 56.1538 115.31 56.1961 115.128 56.2808C114.946 56.3654 114.804 56.4797 114.703 56.6235C114.601 56.7674 114.55 56.9303 114.55 57.1123H113.027C113.027 56.8415 113.092 56.5791 113.224 56.3252C113.355 56.0713 113.545 55.8449 113.795 55.646C114.044 55.4471 114.343 55.2905 114.69 55.1763C115.037 55.062 115.426 55.0049 115.858 55.0049C116.374 55.0049 116.831 55.0916 117.229 55.2651C117.631 55.4386 117.946 55.701 118.175 56.0522C118.407 56.3993 118.524 56.8351 118.524 57.3599V60.4131C118.524 60.7262 118.545 61.0076 118.587 61.2573C118.634 61.5028 118.699 61.7165 118.784 61.8984V62H117.216C117.144 61.835 117.087 61.6255 117.045 61.3716C117.007 61.1134 116.988 60.8638 116.988 60.6226ZM117.21 57.8232L117.223 58.769H116.124C115.841 58.769 115.591 58.7965 115.375 58.8516C115.16 58.9023 114.98 58.9785 114.836 59.0801C114.692 59.1816 114.584 59.3044 114.512 59.4482C114.44 59.5921 114.404 59.755 114.404 59.937C114.404 60.119 114.447 60.2861 114.531 60.4385C114.616 60.5866 114.739 60.703 114.899 60.7876C115.064 60.8722 115.263 60.9146 115.496 60.9146C115.809 60.9146 116.082 60.8511 116.315 60.7241C116.552 60.5929 116.738 60.4342 116.873 60.248C117.009 60.0576 117.081 59.8778 117.089 59.7085L117.584 60.3877C117.534 60.5612 117.447 60.7474 117.324 60.9463C117.201 61.1452 117.041 61.3356 116.842 61.5176C116.647 61.6953 116.412 61.8413 116.137 61.9556C115.866 62.0698 115.553 62.127 115.198 62.127C114.749 62.127 114.349 62.0381 113.998 61.8604C113.647 61.6784 113.372 61.4351 113.173 61.1304C112.974 60.8215 112.874 60.4723 112.874 60.083C112.874 59.7191 112.942 59.3975 113.078 59.1182C113.217 58.8346 113.42 58.5977 113.687 58.4072C113.958 58.2168 114.288 58.0729 114.677 57.9756C115.066 57.874 115.511 57.8232 116.01 57.8232H117.21ZM121.46 56.4521V64.6406H119.93V55.1318H121.339L121.46 56.4521ZM125.935 58.5024V58.6357C125.935 59.1351 125.875 59.5985 125.757 60.0259C125.643 60.4491 125.471 60.8193 125.243 61.1367C125.018 61.4499 124.741 61.6932 124.411 61.8667C124.081 62.0402 123.7 62.127 123.269 62.127C122.841 62.127 122.467 62.0487 122.145 61.8921C121.828 61.7313 121.559 61.5049 121.339 61.2129C121.119 60.9209 120.941 60.5781 120.806 60.1846C120.675 59.7868 120.581 59.3509 120.526 58.877V58.3628C120.581 57.8592 120.675 57.4022 120.806 56.9917C120.941 56.5812 121.119 56.2279 121.339 55.9316C121.559 55.6354 121.828 55.4069 122.145 55.2461C122.462 55.0853 122.833 55.0049 123.256 55.0049C123.688 55.0049 124.071 55.0895 124.405 55.2588C124.739 55.4238 125.021 55.6608 125.249 55.9697C125.478 56.2744 125.649 56.6426 125.763 57.0742C125.878 57.5016 125.935 57.9777 125.935 58.5024ZM124.405 58.6357V58.5024C124.405 58.1851 124.375 57.891 124.316 57.6201C124.257 57.3451 124.164 57.1038 124.037 56.8965C123.91 56.6891 123.747 56.5283 123.548 56.4141C123.353 56.2956 123.118 56.2363 122.843 56.2363C122.573 56.2363 122.34 56.2829 122.145 56.376C121.95 56.4648 121.788 56.5897 121.656 56.7505C121.525 56.9113 121.424 57.0996 121.352 57.3154C121.28 57.527 121.229 57.7576 121.199 58.0073V59.2388C121.25 59.5435 121.337 59.8228 121.46 60.0767C121.582 60.3306 121.756 60.5337 121.98 60.686C122.209 60.8341 122.501 60.9082 122.856 60.9082C123.131 60.9082 123.366 60.849 123.561 60.7305C123.755 60.612 123.914 60.4491 124.037 60.2417C124.164 60.0301 124.257 59.7868 124.316 59.5117C124.375 59.2367 124.405 58.9447 124.405 58.6357ZM128.547 52.25V62H127.023V52.25H128.547ZM128.28 58.312L127.785 58.3057C127.789 57.8317 127.855 57.3937 127.982 56.9917C128.113 56.5897 128.295 56.2406 128.528 55.9443C128.765 55.6439 129.048 55.4132 129.378 55.2524C129.708 55.0874 130.074 55.0049 130.476 55.0049C130.815 55.0049 131.12 55.0514 131.39 55.1445C131.665 55.2376 131.902 55.3879 132.101 55.5952C132.3 55.7983 132.45 56.0649 132.552 56.395C132.658 56.7209 132.711 57.1187 132.711 57.5884V62H131.175V57.5757C131.175 57.2456 131.126 56.9832 131.029 56.7886C130.936 56.5939 130.798 56.4543 130.616 56.3696C130.434 56.2808 130.212 56.2363 129.95 56.2363C129.674 56.2363 129.431 56.2913 129.22 56.4014C129.012 56.5114 128.839 56.6616 128.699 56.8521C128.559 57.0425 128.454 57.2625 128.382 57.5122C128.314 57.7619 128.28 58.0285 128.28 58.312ZM135.697 55.1318V62H134.161V55.1318H135.697ZM134.06 53.3291C134.06 53.0964 134.136 52.9038 134.288 52.7515C134.445 52.5949 134.66 52.5166 134.936 52.5166C135.206 52.5166 135.42 52.5949 135.577 52.7515C135.733 52.9038 135.812 53.0964 135.812 53.3291C135.812 53.5576 135.733 53.748 135.577 53.9004C135.42 54.0527 135.206 54.1289 134.936 54.1289C134.66 54.1289 134.445 54.0527 134.288 53.9004C134.136 53.748 134.06 53.5576 134.06 53.3291ZM139.979 60.9082C140.228 60.9082 140.453 60.8595 140.652 60.7622C140.855 60.6606 141.018 60.521 141.14 60.3433C141.267 60.1655 141.337 59.9603 141.35 59.7275H142.791C142.782 60.1719 142.651 60.576 142.397 60.9399C142.143 61.3039 141.807 61.5938 141.388 61.8096C140.969 62.0212 140.506 62.127 139.998 62.127C139.473 62.127 139.016 62.0381 138.627 61.8604C138.237 61.6784 137.914 61.4287 137.655 61.1113C137.397 60.7939 137.203 60.4279 137.071 60.0132C136.945 59.5985 136.881 59.1541 136.881 58.6802V58.458C136.881 57.984 136.945 57.5397 137.071 57.125C137.203 56.7061 137.397 56.3379 137.655 56.0205C137.914 55.7031 138.237 55.4556 138.627 55.2778C139.016 55.0959 139.471 55.0049 139.991 55.0049C140.542 55.0049 141.024 55.1149 141.439 55.335C141.853 55.5508 142.179 55.8534 142.416 56.2427C142.657 56.6278 142.782 57.0763 142.791 57.5884H141.35C141.337 57.3345 141.274 57.106 141.159 56.9028C141.049 56.6955 140.893 56.5304 140.69 56.4077C140.491 56.285 140.252 56.2236 139.972 56.2236C139.663 56.2236 139.407 56.2871 139.204 56.4141C139.001 56.5368 138.842 56.7061 138.728 56.9219C138.614 57.1335 138.531 57.3726 138.481 57.6392C138.434 57.9015 138.411 58.1745 138.411 58.458V58.6802C138.411 58.9637 138.434 59.2388 138.481 59.5054C138.527 59.772 138.608 60.0111 138.722 60.2227C138.84 60.43 139.001 60.5972 139.204 60.7241C139.407 60.8468 139.666 60.9082 139.979 60.9082ZM147.618 60.1401C147.618 59.9878 147.58 59.8503 147.504 59.7275C147.428 59.6006 147.282 59.4863 147.066 59.3848C146.854 59.2832 146.541 59.1901 146.126 59.1055C145.762 59.0251 145.428 58.9299 145.123 58.8198C144.823 58.7056 144.565 58.568 144.349 58.4072C144.133 58.2464 143.966 58.056 143.848 57.8359C143.729 57.6159 143.67 57.362 143.67 57.0742C143.67 56.7949 143.731 56.5304 143.854 56.2808C143.977 56.0311 144.152 55.811 144.381 55.6206C144.609 55.4302 144.886 55.2799 145.212 55.1699C145.542 55.0599 145.911 55.0049 146.317 55.0049C146.892 55.0049 147.385 55.1022 147.796 55.2969C148.211 55.4873 148.528 55.7476 148.748 56.0776C148.968 56.4035 149.078 56.7716 149.078 57.1821H147.548C147.548 57.0002 147.502 56.8309 147.409 56.6743C147.32 56.5135 147.184 56.3844 147.002 56.2871C146.82 56.1855 146.592 56.1348 146.317 56.1348C146.054 56.1348 145.836 56.1771 145.663 56.2617C145.494 56.3421 145.367 56.4479 145.282 56.5791C145.202 56.7103 145.162 56.8542 145.162 57.0107C145.162 57.125 145.183 57.2287 145.225 57.3218C145.272 57.4106 145.348 57.4932 145.454 57.5693C145.559 57.6413 145.703 57.709 145.885 57.7725C146.071 57.8359 146.304 57.8973 146.583 57.9565C147.108 58.0666 147.559 58.2083 147.935 58.3818C148.316 58.5511 148.608 58.7712 148.811 59.042C149.015 59.3086 149.116 59.6471 149.116 60.0576C149.116 60.3623 149.051 60.6416 148.919 60.8955C148.792 61.1452 148.606 61.3631 148.361 61.5493C148.115 61.7313 147.821 61.873 147.478 61.9746C147.14 62.0762 146.759 62.127 146.336 62.127C145.714 62.127 145.187 62.0169 144.755 61.7969C144.324 61.5726 143.996 61.2869 143.771 60.9399C143.551 60.5887 143.441 60.2248 143.441 59.8481H144.92C144.937 60.1317 145.016 60.3581 145.155 60.5273C145.299 60.6924 145.477 60.813 145.688 60.8892C145.904 60.9611 146.126 60.9971 146.355 60.9971C146.63 60.9971 146.861 60.9611 147.047 60.8892C147.233 60.813 147.375 60.7114 147.472 60.5845C147.569 60.4533 147.618 60.3052 147.618 60.1401ZM157.482 60.5781V52.25H159.018V62H157.628L157.482 60.5781ZM153.013 58.6421V58.5088C153.013 57.9883 153.075 57.5143 153.198 57.0869C153.32 56.6553 153.498 56.285 153.731 55.9761C153.964 55.6629 154.247 55.4238 154.581 55.2588C154.916 55.0895 155.292 55.0049 155.711 55.0049C156.126 55.0049 156.49 55.0853 156.803 55.2461C157.116 55.4069 157.383 55.6375 157.603 55.938C157.823 56.2342 157.999 56.5897 158.13 57.0044C158.261 57.4149 158.354 57.8719 158.409 58.3755V58.8008C158.354 59.2917 158.261 59.7402 158.13 60.1465C157.999 60.5527 157.823 60.904 157.603 61.2002C157.383 61.4964 157.114 61.7249 156.797 61.8857C156.484 62.0465 156.117 62.127 155.699 62.127C155.284 62.127 154.909 62.0402 154.575 61.8667C154.245 61.6932 153.964 61.4499 153.731 61.1367C153.498 60.8236 153.32 60.4554 153.198 60.0322C153.075 59.6048 153.013 59.1414 153.013 58.6421ZM154.543 58.5088V58.6421C154.543 58.9552 154.571 59.2472 154.626 59.5181C154.685 59.7889 154.776 60.028 154.899 60.2354C155.021 60.4385 155.18 60.5993 155.375 60.7178C155.574 60.832 155.811 60.8892 156.086 60.8892C156.433 60.8892 156.718 60.813 156.943 60.6606C157.167 60.5083 157.343 60.3031 157.47 60.0449C157.601 59.7826 157.69 59.4906 157.736 59.1689V58.02C157.711 57.7703 157.658 57.5376 157.577 57.3218C157.501 57.106 157.398 56.9176 157.266 56.7568C157.135 56.5918 156.972 56.4648 156.778 56.376C156.587 56.2829 156.361 56.2363 156.098 56.2363C155.819 56.2363 155.582 56.2956 155.388 56.4141C155.193 56.5326 155.032 56.6955 154.905 56.9028C154.782 57.1102 154.691 57.3514 154.632 57.6265C154.573 57.9015 154.543 58.1956 154.543 58.5088ZM163.446 62.127C162.938 62.127 162.479 62.0444 162.068 61.8794C161.662 61.7101 161.315 61.4753 161.027 61.1748C160.744 60.8743 160.526 60.521 160.374 60.1147C160.221 59.7085 160.145 59.2705 160.145 58.8008V58.5469C160.145 58.0094 160.223 57.5228 160.38 57.0869C160.536 56.651 160.754 56.2786 161.034 55.9697C161.313 55.6566 161.643 55.4175 162.024 55.2524C162.405 55.0874 162.817 55.0049 163.262 55.0049C163.753 55.0049 164.182 55.0874 164.55 55.2524C164.918 55.4175 165.223 55.6502 165.464 55.9507C165.71 56.2469 165.892 56.6003 166.01 57.0107C166.133 57.4212 166.194 57.874 166.194 58.3691V59.0229H160.888V57.9248H164.684V57.8042C164.675 57.5291 164.62 57.271 164.519 57.0298C164.421 56.7886 164.271 56.5939 164.068 56.4458C163.865 56.2977 163.594 56.2236 163.255 56.2236C163.001 56.2236 162.775 56.2786 162.576 56.3887C162.382 56.4945 162.219 56.6489 162.087 56.8521C161.956 57.0552 161.855 57.3006 161.783 57.5884C161.715 57.8719 161.681 58.1914 161.681 58.5469V58.8008C161.681 59.1012 161.721 59.3805 161.802 59.6387C161.886 59.8926 162.009 60.1147 162.17 60.3052C162.331 60.4956 162.525 60.6458 162.754 60.7559C162.982 60.8617 163.243 60.9146 163.535 60.9146C163.903 60.9146 164.231 60.8405 164.519 60.6924C164.806 60.5443 165.056 60.3348 165.268 60.064L166.074 60.8447C165.926 61.0605 165.733 61.2679 165.496 61.4668C165.259 61.6615 164.969 61.8201 164.626 61.9429C164.288 62.0656 163.894 62.127 163.446 62.127ZM171.041 60.1401C171.041 59.9878 171.003 59.8503 170.926 59.7275C170.85 59.6006 170.704 59.4863 170.488 59.3848C170.277 59.2832 169.964 59.1901 169.549 59.1055C169.185 59.0251 168.851 58.9299 168.546 58.8198C168.246 58.7056 167.988 58.568 167.772 58.4072C167.556 58.2464 167.389 58.056 167.27 57.8359C167.152 57.6159 167.092 57.362 167.092 57.0742C167.092 56.7949 167.154 56.5304 167.277 56.2808C167.399 56.0311 167.575 55.811 167.803 55.6206C168.032 55.4302 168.309 55.2799 168.635 55.1699C168.965 55.0599 169.333 55.0049 169.739 55.0049C170.315 55.0049 170.808 55.1022 171.218 55.2969C171.633 55.4873 171.951 55.7476 172.171 56.0776C172.391 56.4035 172.501 56.7716 172.501 57.1821H170.971C170.971 57.0002 170.924 56.8309 170.831 56.6743C170.742 56.5135 170.607 56.3844 170.425 56.2871C170.243 56.1855 170.015 56.1348 169.739 56.1348C169.477 56.1348 169.259 56.1771 169.086 56.2617C168.916 56.3421 168.789 56.4479 168.705 56.5791C168.624 56.7103 168.584 56.8542 168.584 57.0107C168.584 57.125 168.605 57.2287 168.648 57.3218C168.694 57.4106 168.77 57.4932 168.876 57.5693C168.982 57.6413 169.126 57.709 169.308 57.7725C169.494 57.8359 169.727 57.8973 170.006 57.9565C170.531 58.0666 170.981 58.2083 171.358 58.3818C171.739 58.5511 172.031 58.7712 172.234 59.042C172.437 59.3086 172.539 59.6471 172.539 60.0576C172.539 60.3623 172.473 60.6416 172.342 60.8955C172.215 61.1452 172.029 61.3631 171.783 61.5493C171.538 61.7313 171.244 61.873 170.901 61.9746C170.563 62.0762 170.182 62.127 169.758 62.127C169.136 62.127 168.61 62.0169 168.178 61.7969C167.746 61.5726 167.418 61.2869 167.194 60.9399C166.974 60.5887 166.864 60.2248 166.864 59.8481H168.343C168.36 60.1317 168.438 60.3581 168.578 60.5273C168.722 60.6924 168.899 60.813 169.111 60.8892C169.327 60.9611 169.549 60.9971 169.778 60.9971C170.053 60.9971 170.283 60.9611 170.469 60.8892C170.656 60.813 170.797 60.7114 170.895 60.5845C170.992 60.4533 171.041 60.3052 171.041 60.1401ZM175.316 55.1318V62H173.78V55.1318H175.316ZM173.678 53.3291C173.678 53.0964 173.754 52.9038 173.907 52.7515C174.063 52.5949 174.279 52.5166 174.554 52.5166C174.825 52.5166 175.039 52.5949 175.195 52.7515C175.352 52.9038 175.43 53.0964 175.43 53.3291C175.43 53.5576 175.352 53.748 175.195 53.9004C175.039 54.0527 174.825 54.1289 174.554 54.1289C174.279 54.1289 174.063 54.0527 173.907 53.9004C173.754 53.748 173.678 53.5576 173.678 53.3291ZM181.191 55.1318H182.581V61.8096C182.581 62.4274 182.449 62.9521 182.187 63.3838C181.925 63.8154 181.559 64.1434 181.089 64.3677C180.619 64.5962 180.075 64.7104 179.458 64.7104C179.195 64.7104 178.903 64.6724 178.582 64.5962C178.264 64.52 177.955 64.3973 177.655 64.228C177.359 64.063 177.111 63.8451 176.912 63.5742L177.629 62.6729C177.875 62.9648 178.146 63.1785 178.442 63.314C178.738 63.4494 179.049 63.5171 179.375 63.5171C179.726 63.5171 180.025 63.4515 180.27 63.3203C180.52 63.1934 180.712 63.005 180.848 62.7554C180.983 62.5057 181.051 62.201 181.051 61.8413V56.687L181.191 55.1318ZM176.525 58.6421V58.5088C176.525 57.9883 176.588 57.5143 176.715 57.0869C176.842 56.6553 177.024 56.285 177.261 55.9761C177.498 55.6629 177.786 55.4238 178.125 55.2588C178.463 55.0895 178.846 55.0049 179.274 55.0049C179.718 55.0049 180.097 55.0853 180.41 55.2461C180.727 55.4069 180.992 55.6375 181.203 55.938C181.415 56.2342 181.58 56.5897 181.698 57.0044C181.821 57.4149 181.912 57.8719 181.971 58.3755V58.8008C181.916 59.2917 181.823 59.7402 181.692 60.1465C181.561 60.5527 181.387 60.904 181.171 61.2002C180.956 61.4964 180.689 61.7249 180.372 61.8857C180.059 62.0465 179.688 62.127 179.261 62.127C178.842 62.127 178.463 62.0402 178.125 61.8667C177.79 61.6932 177.503 61.4499 177.261 61.1367C177.024 60.8236 176.842 60.4554 176.715 60.0322C176.588 59.6048 176.525 59.1414 176.525 58.6421ZM178.055 58.5088V58.6421C178.055 58.9552 178.084 59.2472 178.144 59.5181C178.207 59.7889 178.302 60.028 178.429 60.2354C178.56 60.4385 178.726 60.5993 178.924 60.7178C179.128 60.832 179.367 60.8892 179.642 60.8892C180.001 60.8892 180.296 60.813 180.524 60.6606C180.757 60.5083 180.935 60.3031 181.057 60.0449C181.184 59.7826 181.273 59.4906 181.324 59.1689V58.02C181.298 57.7703 181.246 57.5376 181.165 57.3218C181.089 57.106 180.985 56.9176 180.854 56.7568C180.723 56.5918 180.558 56.4648 180.359 56.376C180.16 56.2829 179.925 56.2363 179.654 56.2363C179.379 56.2363 179.14 56.2956 178.937 56.4141C178.734 56.5326 178.567 56.6955 178.436 56.9028C178.309 57.1102 178.213 57.3514 178.15 57.6265C178.087 57.9015 178.055 58.1956 178.055 58.5088ZM185.485 56.5981V62H183.955V55.1318H185.396L185.485 56.5981ZM185.212 58.312L184.717 58.3057C184.721 57.819 184.789 57.3726 184.92 56.9663C185.055 56.5601 185.241 56.2109 185.478 55.9189C185.72 55.627 186.007 55.4027 186.342 55.2461C186.676 55.0853 187.048 55.0049 187.459 55.0049C187.789 55.0049 188.087 55.0514 188.354 55.1445C188.625 55.2334 188.855 55.3794 189.046 55.5825C189.24 55.7856 189.388 56.0501 189.49 56.376C189.592 56.6976 189.642 57.0933 189.642 57.563V62H188.106V57.5566C188.106 57.2266 188.058 56.9663 187.96 56.7759C187.867 56.5812 187.73 56.4437 187.548 56.3633C187.37 56.2786 187.148 56.2363 186.881 56.2363C186.619 56.2363 186.384 56.2913 186.177 56.4014C185.969 56.5114 185.794 56.6616 185.65 56.8521C185.51 57.0425 185.402 57.2625 185.326 57.5122C185.25 57.7619 185.212 58.0285 185.212 58.312Z" fill="white"/>
<rect x="63.5" y="100" width="131" height="20" rx="3" fill="black"/>
<path d="M71.7563 111.924L73.5972 104.758H74.562L74.4541 106.605L72.4863 114H71.4834L71.7563 111.924ZM70.3789 104.758L71.8706 111.867L72.0039 114H70.9375L68.7983 104.758H70.3789ZM76.6504 111.848L78.123 104.758H79.71L77.5708 114H76.5044L76.6504 111.848ZM74.9365 104.758L76.7583 111.943L77.0249 114H76.022L74.0859 106.605L73.9844 104.758H74.9365ZM83.363 114.127C82.8552 114.127 82.396 114.044 81.9855 113.879C81.5793 113.71 81.2323 113.475 80.9445 113.175C80.661 112.874 80.4431 112.521 80.2907 112.115C80.1384 111.708 80.0622 111.271 80.0622 110.801V110.547C80.0622 110.009 80.1405 109.523 80.2971 109.087C80.4536 108.651 80.6716 108.279 80.9509 107.97C81.2302 107.657 81.5603 107.417 81.9411 107.252C82.322 107.087 82.7346 107.005 83.1789 107.005C83.6698 107.005 84.0993 107.087 84.4675 107.252C84.8356 107.417 85.1403 107.65 85.3815 107.951C85.627 108.247 85.809 108.6 85.9274 109.011C86.0502 109.421 86.1115 109.874 86.1115 110.369V111.023H80.8049V109.925H84.6008V109.804C84.5923 109.529 84.5373 109.271 84.4357 109.03C84.3384 108.789 84.1882 108.594 83.9851 108.446C83.7819 108.298 83.5111 108.224 83.1726 108.224C82.9187 108.224 82.6923 108.279 82.4934 108.389C82.2987 108.494 82.1358 108.649 82.0046 108.852C81.8734 109.055 81.7718 109.301 81.6999 109.588C81.6322 109.872 81.5983 110.191 81.5983 110.547V110.801C81.5983 111.101 81.6385 111.381 81.7189 111.639C81.8036 111.893 81.9263 112.115 82.0871 112.305C82.2479 112.496 82.4426 112.646 82.6711 112.756C82.8996 112.862 83.1599 112.915 83.4519 112.915C83.82 112.915 84.148 112.84 84.4357 112.692C84.7235 112.544 84.9732 112.335 85.1848 112.064L85.9909 112.845C85.8428 113.061 85.6503 113.268 85.4133 113.467C85.1763 113.661 84.8864 113.82 84.5437 113.943C84.2051 114.066 83.8116 114.127 83.363 114.127ZM87.1112 104.25H88.641V112.534L88.495 114H87.1112V104.25ZM93.1225 110.502V110.636C93.1225 111.144 93.0653 111.611 92.9511 112.039C92.841 112.462 92.6718 112.83 92.4433 113.143C92.219 113.456 91.9397 113.7 91.6054 113.873C91.2753 114.042 90.8923 114.127 90.4564 114.127C90.029 114.127 89.6566 114.047 89.3393 113.886C89.0219 113.725 88.7553 113.496 88.5395 113.2C88.3279 112.904 88.1565 112.551 88.0253 112.14C87.8941 111.73 87.801 111.277 87.746 110.782V110.356C87.801 109.857 87.8941 109.404 88.0253 108.998C88.1565 108.588 88.3279 108.234 88.5395 107.938C88.7553 107.638 89.0198 107.407 89.3329 107.246C89.6503 107.085 90.0206 107.005 90.4438 107.005C90.8839 107.005 91.2711 107.09 91.6054 107.259C91.9439 107.428 92.2253 107.669 92.4496 107.982C92.6739 108.291 92.841 108.66 92.9511 109.087C93.0653 109.514 93.1225 109.986 93.1225 110.502ZM91.5927 110.636V110.502C91.5927 110.194 91.5673 109.904 91.5165 109.633C91.4657 109.358 91.3811 109.117 91.2626 108.909C91.1483 108.702 90.9918 108.539 90.7929 108.42C90.5982 108.298 90.3549 108.236 90.0629 108.236C89.7921 108.236 89.5593 108.283 89.3646 108.376C89.17 108.469 89.0071 108.596 88.8759 108.757C88.7447 108.918 88.641 109.104 88.5648 109.315C88.4929 109.527 88.4442 109.756 88.4188 110.001V111.15C88.4569 111.467 88.5373 111.759 88.6601 112.026C88.787 112.288 88.9647 112.5 89.1933 112.661C89.4218 112.817 89.7159 112.896 90.0756 112.896C90.3591 112.896 90.5982 112.838 90.7929 112.724C90.9875 112.61 91.142 112.451 91.2563 112.248C91.3747 112.041 91.4594 111.799 91.5102 111.524C91.5652 111.249 91.5927 110.953 91.5927 110.636ZM98.7654 104.25V114H97.242V104.25H98.7654ZM98.4988 110.312L98.0037 110.306C98.0079 109.832 98.0735 109.394 98.2005 108.992C98.3317 108.59 98.5136 108.241 98.7464 107.944C98.9834 107.644 99.2669 107.413 99.597 107.252C99.9271 107.087 100.293 107.005 100.695 107.005C101.034 107.005 101.338 107.051 101.609 107.145C101.884 107.238 102.121 107.388 102.32 107.595C102.519 107.798 102.669 108.065 102.771 108.395C102.877 108.721 102.929 109.119 102.929 109.588V114H101.393V109.576C101.393 109.246 101.345 108.983 101.247 108.789C101.154 108.594 101.017 108.454 100.835 108.37C100.653 108.281 100.431 108.236 100.168 108.236C99.8932 108.236 99.6499 108.291 99.4383 108.401C99.2309 108.511 99.0574 108.662 98.9178 108.852C98.7781 109.042 98.6723 109.263 98.6004 109.512C98.5327 109.762 98.4988 110.028 98.4988 110.312ZM103.986 110.642V110.496C103.986 110.001 104.058 109.542 104.202 109.119C104.346 108.691 104.553 108.321 104.824 108.008C105.099 107.69 105.434 107.445 105.827 107.271C106.225 107.094 106.674 107.005 107.173 107.005C107.676 107.005 108.125 107.094 108.519 107.271C108.916 107.445 109.253 107.69 109.528 108.008C109.803 108.321 110.012 108.691 110.156 109.119C110.3 109.542 110.372 110.001 110.372 110.496V110.642C110.372 111.137 110.3 111.596 110.156 112.02C110.012 112.443 109.803 112.813 109.528 113.13C109.253 113.444 108.918 113.689 108.525 113.867C108.131 114.04 107.685 114.127 107.186 114.127C106.682 114.127 106.231 114.04 105.833 113.867C105.44 113.689 105.106 113.444 104.831 113.13C104.556 112.813 104.346 112.443 104.202 112.02C104.058 111.596 103.986 111.137 103.986 110.642ZM105.516 110.496V110.642C105.516 110.951 105.548 111.243 105.611 111.518C105.675 111.793 105.774 112.034 105.91 112.242C106.045 112.449 106.219 112.612 106.43 112.73C106.642 112.849 106.894 112.908 107.186 112.908C107.469 112.908 107.715 112.849 107.922 112.73C108.133 112.612 108.307 112.449 108.442 112.242C108.578 112.034 108.677 111.793 108.741 111.518C108.808 111.243 108.842 110.951 108.842 110.642V110.496C108.842 110.191 108.808 109.904 108.741 109.633C108.677 109.358 108.576 109.114 108.436 108.903C108.301 108.691 108.127 108.526 107.916 108.408C107.708 108.285 107.461 108.224 107.173 108.224C106.885 108.224 106.635 108.285 106.424 108.408C106.216 108.526 106.045 108.691 105.91 108.903C105.774 109.114 105.675 109.358 105.611 109.633C105.548 109.904 105.516 110.191 105.516 110.496ZM115.307 112.14C115.307 111.988 115.269 111.85 115.193 111.728C115.117 111.601 114.971 111.486 114.755 111.385C114.543 111.283 114.23 111.19 113.816 111.105C113.452 111.025 113.117 110.93 112.813 110.82C112.512 110.706 112.254 110.568 112.038 110.407C111.822 110.246 111.655 110.056 111.537 109.836C111.418 109.616 111.359 109.362 111.359 109.074C111.359 108.795 111.42 108.53 111.543 108.281C111.666 108.031 111.842 107.811 112.07 107.621C112.299 107.43 112.576 107.28 112.902 107.17C113.232 107.06 113.6 107.005 114.006 107.005C114.582 107.005 115.075 107.102 115.485 107.297C115.9 107.487 116.217 107.748 116.437 108.078C116.657 108.403 116.767 108.772 116.767 109.182H115.237C115.237 109 115.191 108.831 115.098 108.674C115.009 108.514 114.874 108.384 114.692 108.287C114.51 108.186 114.281 108.135 114.006 108.135C113.744 108.135 113.526 108.177 113.352 108.262C113.183 108.342 113.056 108.448 112.971 108.579C112.891 108.71 112.851 108.854 112.851 109.011C112.851 109.125 112.872 109.229 112.914 109.322C112.961 109.411 113.037 109.493 113.143 109.569C113.249 109.641 113.392 109.709 113.574 109.772C113.761 109.836 113.993 109.897 114.273 109.957C114.797 110.067 115.248 110.208 115.625 110.382C116.006 110.551 116.298 110.771 116.501 111.042C116.704 111.309 116.805 111.647 116.805 112.058C116.805 112.362 116.74 112.642 116.609 112.896C116.482 113.145 116.295 113.363 116.05 113.549C115.805 113.731 115.51 113.873 115.168 113.975C114.829 114.076 114.448 114.127 114.025 114.127C113.403 114.127 112.876 114.017 112.445 113.797C112.013 113.573 111.685 113.287 111.461 112.94C111.241 112.589 111.131 112.225 111.131 111.848H112.61C112.626 112.132 112.705 112.358 112.844 112.527C112.988 112.692 113.166 112.813 113.378 112.889C113.593 112.961 113.816 112.997 114.044 112.997C114.319 112.997 114.55 112.961 114.736 112.889C114.922 112.813 115.064 112.711 115.161 112.584C115.259 112.453 115.307 112.305 115.307 112.14ZM121.093 107.132V108.249H117.221V107.132H121.093ZM118.338 105.45H119.868V112.102C119.868 112.314 119.898 112.477 119.957 112.591C120.02 112.701 120.107 112.775 120.217 112.813C120.327 112.851 120.456 112.87 120.604 112.87C120.71 112.87 120.812 112.864 120.909 112.851C121.006 112.838 121.085 112.826 121.144 112.813L121.15 113.981C121.023 114.019 120.875 114.053 120.706 114.083C120.541 114.112 120.35 114.127 120.135 114.127C119.783 114.127 119.472 114.066 119.202 113.943C118.931 113.816 118.719 113.611 118.567 113.327C118.414 113.044 118.338 112.667 118.338 112.197V105.45ZM123.712 107.132V114H122.175V107.132H123.712ZM122.074 105.329C122.074 105.096 122.15 104.904 122.302 104.751C122.459 104.595 122.675 104.517 122.95 104.517C123.221 104.517 123.434 104.595 123.591 104.751C123.747 104.904 123.826 105.096 123.826 105.329C123.826 105.558 123.747 105.748 123.591 105.9C123.434 106.053 123.221 106.129 122.95 106.129C122.675 106.129 122.459 106.053 122.302 105.9C122.15 105.748 122.074 105.558 122.074 105.329ZM126.704 108.598V114H125.175V107.132H126.616L126.704 108.598ZM126.431 110.312L125.936 110.306C125.941 109.819 126.008 109.373 126.139 108.966C126.275 108.56 126.461 108.211 126.698 107.919C126.939 107.627 127.227 107.403 127.561 107.246C127.896 107.085 128.268 107.005 128.679 107.005C129.009 107.005 129.307 107.051 129.574 107.145C129.844 107.233 130.075 107.379 130.265 107.583C130.46 107.786 130.608 108.05 130.71 108.376C130.811 108.698 130.862 109.093 130.862 109.563V114H129.326V109.557C129.326 109.227 129.277 108.966 129.18 108.776C129.087 108.581 128.949 108.444 128.767 108.363C128.59 108.279 128.367 108.236 128.101 108.236C127.839 108.236 127.604 108.291 127.396 108.401C127.189 108.511 127.013 108.662 126.869 108.852C126.73 109.042 126.622 109.263 126.546 109.512C126.47 109.762 126.431 110.028 126.431 110.312ZM136.623 107.132H138.013V113.81C138.013 114.427 137.882 114.952 137.619 115.384C137.357 115.815 136.991 116.143 136.521 116.368C136.051 116.596 135.507 116.71 134.89 116.71C134.627 116.71 134.335 116.672 134.014 116.596C133.696 116.52 133.387 116.397 133.087 116.228C132.791 116.063 132.543 115.845 132.344 115.574L133.062 114.673C133.307 114.965 133.578 115.179 133.874 115.314C134.17 115.449 134.481 115.517 134.807 115.517C135.158 115.517 135.457 115.451 135.702 115.32C135.952 115.193 136.144 115.005 136.28 114.755C136.415 114.506 136.483 114.201 136.483 113.841V108.687L136.623 107.132ZM131.957 110.642V110.509C131.957 109.988 132.021 109.514 132.147 109.087C132.274 108.655 132.456 108.285 132.693 107.976C132.93 107.663 133.218 107.424 133.557 107.259C133.895 107.09 134.278 107.005 134.706 107.005C135.15 107.005 135.529 107.085 135.842 107.246C136.159 107.407 136.424 107.638 136.635 107.938C136.847 108.234 137.012 108.59 137.13 109.004C137.253 109.415 137.344 109.872 137.403 110.375V110.801C137.348 111.292 137.255 111.74 137.124 112.146C136.993 112.553 136.819 112.904 136.604 113.2C136.388 113.496 136.121 113.725 135.804 113.886C135.491 114.047 135.12 114.127 134.693 114.127C134.274 114.127 133.895 114.04 133.557 113.867C133.222 113.693 132.935 113.45 132.693 113.137C132.456 112.824 132.274 112.455 132.147 112.032C132.021 111.605 131.957 111.141 131.957 110.642ZM133.487 110.509V110.642C133.487 110.955 133.516 111.247 133.576 111.518C133.639 111.789 133.734 112.028 133.861 112.235C133.993 112.438 134.158 112.599 134.356 112.718C134.56 112.832 134.799 112.889 135.074 112.889C135.433 112.889 135.728 112.813 135.956 112.661C136.189 112.508 136.367 112.303 136.489 112.045C136.616 111.783 136.705 111.491 136.756 111.169V110.02C136.73 109.77 136.678 109.538 136.597 109.322C136.521 109.106 136.417 108.918 136.286 108.757C136.155 108.592 135.99 108.465 135.791 108.376C135.592 108.283 135.357 108.236 135.086 108.236C134.811 108.236 134.572 108.296 134.369 108.414C134.166 108.533 133.999 108.695 133.868 108.903C133.741 109.11 133.646 109.351 133.582 109.626C133.519 109.902 133.487 110.196 133.487 110.509ZM146.29 112.14C146.29 111.988 146.252 111.85 146.176 111.728C146.1 111.601 145.954 111.486 145.738 111.385C145.526 111.283 145.213 111.19 144.798 111.105C144.434 111.025 144.1 110.93 143.795 110.82C143.495 110.706 143.237 110.568 143.021 110.407C142.805 110.246 142.638 110.056 142.519 109.836C142.401 109.616 142.342 109.362 142.342 109.074C142.342 108.795 142.403 108.53 142.526 108.281C142.649 108.031 142.824 107.811 143.053 107.621C143.281 107.43 143.558 107.28 143.884 107.17C144.214 107.06 144.582 107.005 144.989 107.005C145.564 107.005 146.057 107.102 146.468 107.297C146.882 107.487 147.2 107.748 147.42 108.078C147.64 108.403 147.75 108.772 147.75 109.182H146.22C146.22 109 146.174 108.831 146.08 108.674C145.992 108.514 145.856 108.384 145.674 108.287C145.492 108.186 145.264 108.135 144.989 108.135C144.726 108.135 144.508 108.177 144.335 108.262C144.166 108.342 144.039 108.448 143.954 108.579C143.874 108.71 143.833 108.854 143.833 109.011C143.833 109.125 143.855 109.229 143.897 109.322C143.943 109.411 144.02 109.493 144.125 109.569C144.231 109.641 144.375 109.709 144.557 109.772C144.743 109.836 144.976 109.897 145.255 109.957C145.78 110.067 146.231 110.208 146.607 110.382C146.988 110.551 147.28 110.771 147.483 111.042C147.686 111.309 147.788 111.647 147.788 112.058C147.788 112.362 147.722 112.642 147.591 112.896C147.464 113.145 147.278 113.363 147.033 113.549C146.787 113.731 146.493 113.873 146.15 113.975C145.812 114.076 145.431 114.127 145.008 114.127C144.386 114.127 143.859 114.017 143.427 113.797C142.996 113.573 142.668 113.287 142.443 112.94C142.223 112.589 142.113 112.225 142.113 111.848H143.592C143.609 112.132 143.687 112.358 143.827 112.527C143.971 112.692 144.149 112.813 144.36 112.889C144.576 112.961 144.798 112.997 145.027 112.997C145.302 112.997 145.532 112.961 145.719 112.889C145.905 112.813 146.047 112.711 146.144 112.584C146.241 112.453 146.29 112.305 146.29 112.14ZM151.955 114.127C151.447 114.127 150.988 114.044 150.578 113.879C150.171 113.71 149.824 113.475 149.537 113.175C149.253 112.874 149.035 112.521 148.883 112.115C148.731 111.708 148.654 111.271 148.654 110.801V110.547C148.654 110.009 148.733 109.523 148.889 109.087C149.046 108.651 149.264 108.279 149.543 107.97C149.822 107.657 150.152 107.417 150.533 107.252C150.914 107.087 151.327 107.005 151.771 107.005C152.262 107.005 152.692 107.087 153.06 107.252C153.428 107.417 153.733 107.65 153.974 107.951C154.219 108.247 154.401 108.6 154.52 109.011C154.642 109.421 154.704 109.874 154.704 110.369V111.023H149.397V109.925H153.193V109.804C153.185 109.529 153.129 109.271 153.028 109.03C152.931 108.789 152.78 108.594 152.577 108.446C152.374 108.298 152.103 108.224 151.765 108.224C151.511 108.224 151.284 108.279 151.086 108.389C150.891 108.494 150.728 108.649 150.597 108.852C150.466 109.055 150.364 109.301 150.292 109.588C150.224 109.872 150.191 110.191 150.191 110.547V110.801C150.191 111.101 150.231 111.381 150.311 111.639C150.396 111.893 150.518 112.115 150.679 112.305C150.84 112.496 151.035 112.646 151.263 112.756C151.492 112.862 151.752 112.915 152.044 112.915C152.412 112.915 152.74 112.84 153.028 112.692C153.316 112.544 153.565 112.335 153.777 112.064L154.583 112.845C154.435 113.061 154.242 113.268 154.005 113.467C153.768 113.661 153.479 113.82 153.136 113.943C152.797 114.066 152.404 114.127 151.955 114.127ZM157.233 108.439V114H155.703V107.132H157.163L157.233 108.439ZM159.334 107.087L159.322 108.509C159.228 108.492 159.127 108.48 159.017 108.471C158.911 108.463 158.805 108.458 158.7 108.458C158.437 108.458 158.207 108.497 158.008 108.573C157.809 108.645 157.642 108.75 157.506 108.89C157.375 109.026 157.273 109.191 157.201 109.385C157.13 109.58 157.087 109.798 157.075 110.039L156.725 110.064C156.725 109.633 156.768 109.233 156.852 108.865C156.937 108.497 157.064 108.173 157.233 107.894C157.407 107.614 157.623 107.396 157.881 107.24C158.143 107.083 158.446 107.005 158.788 107.005C158.881 107.005 158.981 107.013 159.087 107.03C159.197 107.047 159.279 107.066 159.334 107.087ZM162.441 112.788L164.124 107.132H165.71L163.324 114H162.333L162.441 112.788ZM161.153 107.132L162.867 112.813L162.949 114H161.959L159.56 107.132H161.153ZM168.094 107.132V114H166.558V107.132H168.094ZM166.456 105.329C166.456 105.096 166.532 104.904 166.685 104.751C166.841 104.595 167.057 104.517 167.332 104.517C167.603 104.517 167.817 104.595 167.973 104.751C168.13 104.904 168.208 105.096 168.208 105.329C168.208 105.558 168.13 105.748 167.973 105.9C167.817 106.053 167.603 106.129 167.332 106.129C167.057 106.129 166.841 106.053 166.685 105.9C166.532 105.748 166.456 105.558 166.456 105.329ZM172.375 112.908C172.625 112.908 172.849 112.86 173.048 112.762C173.251 112.661 173.414 112.521 173.537 112.343C173.664 112.166 173.734 111.96 173.746 111.728H175.187C175.179 112.172 175.048 112.576 174.794 112.94C174.54 113.304 174.204 113.594 173.785 113.81C173.366 114.021 172.902 114.127 172.394 114.127C171.87 114.127 171.413 114.038 171.023 113.86C170.634 113.678 170.31 113.429 170.052 113.111C169.794 112.794 169.599 112.428 169.468 112.013C169.341 111.598 169.278 111.154 169.278 110.68V110.458C169.278 109.984 169.341 109.54 169.468 109.125C169.599 108.706 169.794 108.338 170.052 108.021C170.31 107.703 170.634 107.456 171.023 107.278C171.413 107.096 171.868 107.005 172.388 107.005C172.938 107.005 173.421 107.115 173.835 107.335C174.25 107.551 174.576 107.853 174.813 108.243C175.054 108.628 175.179 109.076 175.187 109.588H173.746C173.734 109.334 173.67 109.106 173.556 108.903C173.446 108.695 173.289 108.53 173.086 108.408C172.887 108.285 172.648 108.224 172.369 108.224C172.06 108.224 171.804 108.287 171.601 108.414C171.398 108.537 171.239 108.706 171.125 108.922C171.011 109.133 170.928 109.373 170.877 109.639C170.831 109.902 170.808 110.174 170.808 110.458V110.68C170.808 110.964 170.831 111.239 170.877 111.505C170.924 111.772 171.004 112.011 171.119 112.223C171.237 112.43 171.398 112.597 171.601 112.724C171.804 112.847 172.062 112.908 172.375 112.908ZM179.19 114.127C178.682 114.127 178.223 114.044 177.812 113.879C177.406 113.71 177.059 113.475 176.771 113.175C176.488 112.874 176.27 112.521 176.117 112.115C175.965 111.708 175.889 111.271 175.889 110.801V110.547C175.889 110.009 175.967 109.523 176.124 109.087C176.28 108.651 176.498 108.279 176.777 107.97C177.057 107.657 177.387 107.417 177.768 107.252C178.149 107.087 178.561 107.005 179.005 107.005C179.496 107.005 179.926 107.087 180.294 107.252C180.662 107.417 180.967 107.65 181.208 107.951C181.454 108.247 181.636 108.6 181.754 109.011C181.877 109.421 181.938 109.874 181.938 110.369V111.023H176.631V109.925H180.427V109.804C180.419 109.529 180.364 109.271 180.262 109.03C180.165 108.789 180.015 108.594 179.812 108.446C179.608 108.298 179.338 108.224 178.999 108.224C178.745 108.224 178.519 108.279 178.32 108.389C178.125 108.494 177.962 108.649 177.831 108.852C177.7 109.055 177.598 109.301 177.526 109.588C177.459 109.872 177.425 110.191 177.425 110.547V110.801C177.425 111.101 177.465 111.381 177.546 111.639C177.63 111.893 177.753 112.115 177.914 112.305C178.074 112.496 178.269 112.646 178.498 112.756C178.726 112.862 178.986 112.915 179.278 112.915C179.647 112.915 179.975 112.84 180.262 112.692C180.55 112.544 180.8 112.335 181.011 112.064L181.817 112.845C181.669 113.061 181.477 113.268 181.24 113.467C181.003 113.661 180.713 113.82 180.37 113.943C180.032 114.066 179.638 114.127 179.19 114.127ZM186.784 112.14C186.784 111.988 186.746 111.85 186.67 111.728C186.594 111.601 186.448 111.486 186.232 111.385C186.021 111.283 185.707 111.19 185.293 111.105C184.929 111.025 184.595 110.93 184.29 110.82C183.989 110.706 183.731 110.568 183.515 110.407C183.3 110.246 183.132 110.056 183.014 109.836C182.895 109.616 182.836 109.362 182.836 109.074C182.836 108.795 182.898 108.53 183.02 108.281C183.143 108.031 183.319 107.811 183.547 107.621C183.776 107.43 184.053 107.28 184.379 107.17C184.709 107.06 185.077 107.005 185.483 107.005C186.059 107.005 186.552 107.102 186.962 107.297C187.377 107.487 187.694 107.748 187.914 108.078C188.134 108.403 188.244 108.772 188.244 109.182H186.715C186.715 109 186.668 108.831 186.575 108.674C186.486 108.514 186.351 108.384 186.169 108.287C185.987 108.186 185.758 108.135 185.483 108.135C185.221 108.135 185.003 108.177 184.829 108.262C184.66 108.342 184.533 108.448 184.449 108.579C184.368 108.71 184.328 108.854 184.328 109.011C184.328 109.125 184.349 109.229 184.391 109.322C184.438 109.411 184.514 109.493 184.62 109.569C184.726 109.641 184.87 109.709 185.052 109.772C185.238 109.836 185.471 109.897 185.75 109.957C186.275 110.067 186.725 110.208 187.102 110.382C187.483 110.551 187.775 110.771 187.978 111.042C188.181 111.309 188.283 111.647 188.283 112.058C188.283 112.362 188.217 112.642 188.086 112.896C187.959 113.145 187.773 113.363 187.527 113.549C187.282 113.731 186.988 113.873 186.645 113.975C186.306 114.076 185.925 114.127 185.502 114.127C184.88 114.127 184.353 114.017 183.922 113.797C183.49 113.573 183.162 113.287 182.938 112.94C182.718 112.589 182.608 112.225 182.608 111.848H184.087C184.104 112.132 184.182 112.358 184.322 112.527C184.465 112.692 184.643 112.813 184.855 112.889C185.071 112.961 185.293 112.997 185.521 112.997C185.796 112.997 186.027 112.961 186.213 112.889C186.399 112.813 186.541 112.711 186.638 112.584C186.736 112.453 186.784 112.305 186.784 112.14Z" fill="white"/>
<rect x="267.5" y="47" width="155" height="20" rx="3" fill="black"/>
<path d="M275.756 58.9243L277.597 51.7578H278.562L278.454 53.605L276.486 61H275.483L275.756 58.9243ZM274.379 51.7578L275.871 58.8672L276.004 61H274.938L272.798 51.7578H274.379ZM280.65 58.8481L282.123 51.7578H283.71L281.571 61H280.504L280.65 58.8481ZM278.937 51.7578L280.758 58.9434L281.025 61H280.022L278.086 53.605L277.984 51.7578H278.937ZM287.363 61.127C286.855 61.127 286.396 61.0444 285.986 60.8794C285.579 60.7101 285.232 60.4753 284.945 60.1748C284.661 59.8743 284.443 59.521 284.291 59.1147C284.138 58.7085 284.062 58.2705 284.062 57.8008V57.5469C284.062 57.0094 284.14 56.5228 284.297 56.0869C284.454 55.651 284.672 55.2786 284.951 54.9697C285.23 54.6566 285.56 54.4175 285.941 54.2524C286.322 54.0874 286.735 54.0049 287.179 54.0049C287.67 54.0049 288.099 54.0874 288.467 54.2524C288.836 54.4175 289.14 54.6502 289.382 54.9507C289.627 55.2469 289.809 55.6003 289.927 56.0107C290.05 56.4212 290.112 56.874 290.112 57.3691V58.0229H284.805V56.9248H288.601V56.8042C288.592 56.5291 288.537 56.271 288.436 56.0298C288.338 55.7886 288.188 55.5939 287.985 55.4458C287.782 55.2977 287.511 55.2236 287.173 55.2236C286.919 55.2236 286.692 55.2786 286.493 55.3887C286.299 55.4945 286.136 55.6489 286.005 55.8521C285.873 56.0552 285.772 56.3006 285.7 56.5884C285.632 56.8719 285.598 57.1914 285.598 57.5469V57.8008C285.598 58.1012 285.639 58.3805 285.719 58.6387C285.804 58.8926 285.926 59.1147 286.087 59.3052C286.248 59.4956 286.443 59.6458 286.671 59.7559C286.9 59.8617 287.16 59.9146 287.452 59.9146C287.82 59.9146 288.148 59.8405 288.436 59.6924C288.724 59.5443 288.973 59.3348 289.185 59.064L289.991 59.8447C289.843 60.0605 289.65 60.2679 289.413 60.4668C289.176 60.6615 288.886 60.8201 288.544 60.9429C288.205 61.0656 287.812 61.127 287.363 61.127ZM291.111 51.25H292.641V59.5337L292.495 61H291.111V51.25ZM297.122 57.5024V57.6357C297.122 58.1436 297.065 58.6112 296.951 59.0386C296.841 59.4618 296.672 59.8299 296.443 60.1431C296.219 60.4562 295.94 60.6995 295.605 60.873C295.275 61.0423 294.892 61.127 294.456 61.127C294.029 61.127 293.657 61.0465 293.339 60.8857C293.022 60.7249 292.755 60.4964 292.539 60.2002C292.328 59.904 292.156 59.5506 292.025 59.1401C291.894 58.7297 291.801 58.2769 291.746 57.7817V57.3564C291.801 56.8571 291.894 56.4043 292.025 55.998C292.156 55.5876 292.328 55.2342 292.539 54.938C292.755 54.6375 293.02 54.4069 293.333 54.2461C293.65 54.0853 294.021 54.0049 294.444 54.0049C294.884 54.0049 295.271 54.0895 295.605 54.2588C295.944 54.4281 296.225 54.6693 296.45 54.9824C296.674 55.2913 296.841 55.6595 296.951 56.0869C297.065 56.5143 297.122 56.9862 297.122 57.5024ZM295.593 57.6357V57.5024C295.593 57.1935 295.567 56.9036 295.517 56.6328C295.466 56.3577 295.381 56.1165 295.263 55.9092C295.148 55.7018 294.992 55.5389 294.793 55.4204C294.598 55.2977 294.355 55.2363 294.063 55.2363C293.792 55.2363 293.559 55.2829 293.365 55.376C293.17 55.4691 293.007 55.596 292.876 55.7568C292.745 55.9176 292.641 56.1038 292.565 56.3154C292.493 56.527 292.444 56.7555 292.419 57.001V58.1499C292.457 58.4673 292.537 58.7593 292.66 59.0259C292.787 59.2882 292.965 59.4998 293.193 59.6606C293.422 59.8172 293.716 59.8955 294.076 59.8955C294.359 59.8955 294.598 59.8384 294.793 59.7241C294.988 59.6099 295.142 59.4512 295.256 59.248C295.375 59.0407 295.459 58.7995 295.51 58.5244C295.565 58.2493 295.593 57.9531 295.593 57.6357ZM305.444 59.5781V51.25H306.98V61H305.59L305.444 59.5781ZM300.975 57.6421V57.5088C300.975 56.9883 301.037 56.5143 301.159 56.0869C301.282 55.6553 301.46 55.285 301.693 54.9761C301.925 54.6629 302.209 54.4238 302.543 54.2588C302.878 54.0895 303.254 54.0049 303.673 54.0049C304.088 54.0049 304.452 54.0853 304.765 54.2461C305.078 54.4069 305.345 54.6375 305.565 54.938C305.785 55.2342 305.96 55.5897 306.092 56.0044C306.223 56.4149 306.316 56.8719 306.371 57.3755V57.8008C306.316 58.2917 306.223 58.7402 306.092 59.1465C305.96 59.5527 305.785 59.904 305.565 60.2002C305.345 60.4964 305.076 60.7249 304.759 60.8857C304.445 61.0465 304.079 61.127 303.66 61.127C303.246 61.127 302.871 61.0402 302.537 60.8667C302.207 60.6932 301.925 60.4499 301.693 60.1367C301.46 59.8236 301.282 59.4554 301.159 59.0322C301.037 58.6048 300.975 58.1414 300.975 57.6421ZM302.505 57.5088V57.6421C302.505 57.9552 302.533 58.2472 302.588 58.5181C302.647 58.7889 302.738 59.028 302.861 59.2354C302.983 59.4385 303.142 59.5993 303.337 59.7178C303.536 59.832 303.773 59.8892 304.048 59.8892C304.395 59.8892 304.68 59.813 304.905 59.6606C305.129 59.5083 305.304 59.3031 305.431 59.0449C305.563 58.7826 305.651 58.4906 305.698 58.1689V57.02C305.673 56.7703 305.62 56.5376 305.539 56.3218C305.463 56.106 305.36 55.9176 305.228 55.7568C305.097 55.5918 304.934 55.4648 304.74 55.376C304.549 55.2829 304.323 55.2363 304.06 55.2363C303.781 55.2363 303.544 55.2956 303.349 55.4141C303.155 55.5326 302.994 55.6955 302.867 55.9028C302.744 56.1102 302.653 56.3514 302.594 56.6265C302.535 56.9015 302.505 57.1956 302.505 57.5088ZM311.408 61.127C310.9 61.127 310.441 61.0444 310.03 60.8794C309.624 60.7101 309.277 60.4753 308.989 60.1748C308.706 59.8743 308.488 59.521 308.335 59.1147C308.183 58.7085 308.107 58.2705 308.107 57.8008V57.5469C308.107 57.0094 308.185 56.5228 308.342 56.0869C308.498 55.651 308.716 55.2786 308.996 54.9697C309.275 54.6566 309.605 54.4175 309.986 54.2524C310.367 54.0874 310.779 54.0049 311.224 54.0049C311.715 54.0049 312.144 54.0874 312.512 54.2524C312.88 54.4175 313.185 54.6502 313.426 54.9507C313.672 55.2469 313.854 55.6003 313.972 56.0107C314.095 56.4212 314.156 56.874 314.156 57.3691V58.0229H308.85V56.9248H312.646V56.8042C312.637 56.5291 312.582 56.271 312.48 56.0298C312.383 55.7886 312.233 55.5939 312.03 55.4458C311.827 55.2977 311.556 55.2236 311.217 55.2236C310.963 55.2236 310.737 55.2786 310.538 55.3887C310.343 55.4945 310.181 55.6489 310.049 55.8521C309.918 56.0552 309.817 56.3006 309.745 56.5884C309.677 56.8719 309.643 57.1914 309.643 57.5469V57.8008C309.643 58.1012 309.683 58.3805 309.764 58.6387C309.848 58.8926 309.971 59.1147 310.132 59.3052C310.293 59.4956 310.487 59.6458 310.716 59.7559C310.944 59.8617 311.205 59.9146 311.497 59.9146C311.865 59.9146 312.193 59.8405 312.48 59.6924C312.768 59.5443 313.018 59.3348 313.229 59.064L314.036 59.8447C313.888 60.0605 313.695 60.2679 313.458 60.4668C313.221 60.6615 312.931 60.8201 312.588 60.9429C312.25 61.0656 311.856 61.127 311.408 61.127ZM317.295 59.7876L318.977 54.1318H320.564L318.177 61H317.187L317.295 59.7876ZM316.007 54.1318L317.72 59.813L317.803 61H316.813L314.413 54.1318H316.007ZM324.249 61.127C323.741 61.127 323.282 61.0444 322.871 60.8794C322.465 60.7101 322.118 60.4753 321.83 60.1748C321.547 59.8743 321.329 59.521 321.177 59.1147C321.024 58.7085 320.948 58.2705 320.948 57.8008V57.5469C320.948 57.0094 321.026 56.5228 321.183 56.0869C321.34 55.651 321.558 55.2786 321.837 54.9697C322.116 54.6566 322.446 54.4175 322.827 54.2524C323.208 54.0874 323.621 54.0049 324.065 54.0049C324.556 54.0049 324.985 54.0874 325.353 54.2524C325.722 54.4175 326.026 54.6502 326.267 54.9507C326.513 55.2469 326.695 55.6003 326.813 56.0107C326.936 56.4212 326.997 56.874 326.997 57.3691V58.0229H321.691V56.9248H325.487V56.8042C325.478 56.5291 325.423 56.271 325.322 56.0298C325.224 55.7886 325.074 55.5939 324.871 55.4458C324.668 55.2977 324.397 55.2236 324.058 55.2236C323.805 55.2236 323.578 55.2786 323.379 55.3887C323.185 55.4945 323.022 55.6489 322.891 55.8521C322.759 56.0552 322.658 56.3006 322.586 56.5884C322.518 56.8719 322.484 57.1914 322.484 57.5469V57.8008C322.484 58.1012 322.524 58.3805 322.605 58.6387C322.69 58.8926 322.812 59.1147 322.973 59.3052C323.134 59.4956 323.329 59.6458 323.557 59.7559C323.786 59.8617 324.046 59.9146 324.338 59.9146C324.706 59.9146 325.034 59.8405 325.322 59.6924C325.609 59.5443 325.859 59.3348 326.071 59.064L326.877 59.8447C326.729 60.0605 326.536 60.2679 326.299 60.4668C326.062 60.6615 325.772 60.8201 325.43 60.9429C325.091 61.0656 324.697 61.127 324.249 61.127ZM329.629 51.25V61H328.092V51.25H329.629ZM330.812 57.6421V57.4961C330.812 57.001 330.884 56.5418 331.028 56.1187C331.172 55.6912 331.379 55.321 331.65 55.0078C331.925 54.6904 332.26 54.445 332.653 54.2715C333.051 54.0938 333.499 54.0049 333.999 54.0049C334.502 54.0049 334.951 54.0938 335.345 54.2715C335.742 54.445 336.079 54.6904 336.354 55.0078C336.629 55.321 336.838 55.6912 336.982 56.1187C337.126 56.5418 337.198 57.001 337.198 57.4961V57.6421C337.198 58.1372 337.126 58.5964 336.982 59.0195C336.838 59.4427 336.629 59.813 336.354 60.1304C336.079 60.4435 335.744 60.689 335.351 60.8667C334.957 61.0402 334.511 61.127 334.012 61.127C333.508 61.127 333.057 61.0402 332.659 60.8667C332.266 60.689 331.932 60.4435 331.657 60.1304C331.381 59.813 331.172 59.4427 331.028 59.0195C330.884 58.5964 330.812 58.1372 330.812 57.6421ZM332.342 57.4961V57.6421C332.342 57.951 332.374 58.243 332.437 58.5181C332.501 58.7931 332.6 59.0343 332.736 59.2417C332.871 59.4491 333.045 59.612 333.256 59.7305C333.468 59.849 333.72 59.9082 334.012 59.9082C334.295 59.9082 334.54 59.849 334.748 59.7305C334.959 59.612 335.133 59.4491 335.268 59.2417C335.404 59.0343 335.503 58.7931 335.567 58.5181C335.634 58.243 335.668 57.951 335.668 57.6421V57.4961C335.668 57.1914 335.634 56.9036 335.567 56.6328C335.503 56.3577 335.402 56.1144 335.262 55.9028C335.127 55.6912 334.953 55.5262 334.742 55.4077C334.534 55.285 334.287 55.2236 333.999 55.2236C333.711 55.2236 333.461 55.285 333.25 55.4077C333.042 55.5262 332.871 55.6912 332.736 55.9028C332.6 56.1144 332.501 56.3577 332.437 56.6328C332.374 56.9036 332.342 57.1914 332.342 57.4961ZM339.816 55.4521V63.6406H338.287V54.1318H339.696L339.816 55.4521ZM344.292 57.5024V57.6357C344.292 58.1351 344.232 58.5985 344.114 59.0259C344 59.4491 343.828 59.8193 343.6 60.1367C343.375 60.4499 343.098 60.6932 342.768 60.8667C342.438 61.0402 342.057 61.127 341.625 61.127C341.198 61.127 340.824 61.0487 340.502 60.8921C340.185 60.7313 339.916 60.5049 339.696 60.2129C339.476 59.9209 339.298 59.5781 339.163 59.1846C339.031 58.7868 338.938 58.3509 338.883 57.877V57.3628C338.938 56.8592 339.031 56.4022 339.163 55.9917C339.298 55.5812 339.476 55.2279 339.696 54.9316C339.916 54.6354 340.185 54.4069 340.502 54.2461C340.819 54.0853 341.19 54.0049 341.613 54.0049C342.044 54.0049 342.427 54.0895 342.762 54.2588C343.096 54.4238 343.377 54.6608 343.606 54.9697C343.834 55.2744 344.006 55.6426 344.12 56.0742C344.234 56.5016 344.292 56.9777 344.292 57.5024ZM342.762 57.6357V57.5024C342.762 57.1851 342.732 56.891 342.673 56.6201C342.614 56.3451 342.521 56.1038 342.394 55.8965C342.267 55.6891 342.104 55.5283 341.905 55.4141C341.71 55.2956 341.475 55.2363 341.2 55.2363C340.929 55.2363 340.697 55.2829 340.502 55.376C340.307 55.4648 340.144 55.5897 340.013 55.7505C339.882 55.9113 339.78 56.0996 339.708 56.3154C339.637 56.527 339.586 56.7576 339.556 57.0073V58.2388C339.607 58.5435 339.694 58.8228 339.816 59.0767C339.939 59.3306 340.113 59.5337 340.337 59.686C340.565 59.8341 340.857 59.9082 341.213 59.9082C341.488 59.9082 341.723 59.849 341.917 59.7305C342.112 59.612 342.271 59.4491 342.394 59.2417C342.521 59.0301 342.614 58.7868 342.673 58.5117C342.732 58.2367 342.762 57.9447 342.762 57.6357ZM346.923 55.5283V61H345.393V54.1318H346.834L346.923 55.5283ZM346.675 57.312L346.154 57.3057C346.154 56.8317 346.214 56.3937 346.332 55.9917C346.451 55.5897 346.624 55.2406 346.853 54.9443C347.081 54.6439 347.365 54.4132 347.703 54.2524C348.046 54.0874 348.442 54.0049 348.89 54.0049C349.203 54.0049 349.489 54.0514 349.747 54.1445C350.01 54.2334 350.236 54.3752 350.426 54.5698C350.621 54.7645 350.769 55.0142 350.871 55.3188C350.977 55.6235 351.029 55.9917 351.029 56.4233V61H349.5V56.5566C349.5 56.2223 349.449 55.96 349.347 55.7695C349.25 55.5791 349.108 55.4437 348.922 55.3633C348.74 55.2786 348.522 55.2363 348.268 55.2363C347.981 55.2363 347.735 55.2913 347.532 55.4014C347.333 55.5114 347.17 55.6616 347.043 55.8521C346.916 56.0425 346.823 56.2625 346.764 56.5122C346.705 56.7619 346.675 57.0285 346.675 57.312ZM350.934 56.9058L350.217 57.0645C350.217 56.6497 350.274 56.2583 350.388 55.8901C350.507 55.5177 350.678 55.1919 350.903 54.9126C351.131 54.6291 351.412 54.4069 351.747 54.2461C352.081 54.0853 352.464 54.0049 352.896 54.0049C353.247 54.0049 353.56 54.0535 353.835 54.1509C354.114 54.244 354.351 54.3921 354.546 54.5952C354.741 54.7983 354.889 55.0628 354.99 55.3887C355.092 55.7103 355.143 56.0996 355.143 56.5566V61H353.607V56.5503C353.607 56.2033 353.556 55.9346 353.454 55.7441C353.357 55.5537 353.217 55.4225 353.035 55.3506C352.853 55.2744 352.635 55.2363 352.382 55.2363C352.145 55.2363 351.935 55.2808 351.753 55.3696C351.575 55.4543 351.425 55.5749 351.302 55.7314C351.18 55.8838 351.087 56.0594 351.023 56.2583C350.964 56.4572 350.934 56.673 350.934 56.9058ZM359.545 61.127C359.037 61.127 358.578 61.0444 358.167 60.8794C357.761 60.7101 357.414 60.4753 357.126 60.1748C356.843 59.8743 356.625 59.521 356.473 59.1147C356.32 58.7085 356.244 58.2705 356.244 57.8008V57.5469C356.244 57.0094 356.322 56.5228 356.479 56.0869C356.635 55.651 356.853 55.2786 357.133 54.9697C357.412 54.6566 357.742 54.4175 358.123 54.2524C358.504 54.0874 358.916 54.0049 359.361 54.0049C359.852 54.0049 360.281 54.0874 360.649 54.2524C361.017 54.4175 361.322 54.6502 361.563 54.9507C361.809 55.2469 361.991 55.6003 362.109 56.0107C362.232 56.4212 362.293 56.874 362.293 57.3691V58.0229H356.987V56.9248H360.783V56.8042C360.774 56.5291 360.719 56.271 360.618 56.0298C360.52 55.7886 360.37 55.5939 360.167 55.4458C359.964 55.2977 359.693 55.2236 359.354 55.2236C359.1 55.2236 358.874 55.2786 358.675 55.3887C358.481 55.4945 358.318 55.6489 358.186 55.8521C358.055 56.0552 357.954 56.3006 357.882 56.5884C357.814 56.8719 357.78 57.1914 357.78 57.5469V57.8008C357.78 58.1012 357.82 58.3805 357.901 58.6387C357.985 58.8926 358.108 59.1147 358.269 59.3052C358.43 59.4956 358.624 59.6458 358.853 59.7559C359.081 59.8617 359.342 59.9146 359.634 59.9146C360.002 59.9146 360.33 59.8405 360.618 59.6924C360.905 59.5443 361.155 59.3348 361.367 59.064L362.173 59.8447C362.025 60.0605 361.832 60.2679 361.595 60.4668C361.358 60.6615 361.068 60.8201 360.725 60.9429C360.387 61.0656 359.993 61.127 359.545 61.127ZM364.804 55.5981V61H363.274V54.1318H364.715L364.804 55.5981ZM364.531 57.312L364.036 57.3057C364.04 56.819 364.108 56.3726 364.239 55.9663C364.374 55.5601 364.56 55.2109 364.797 54.9189C365.039 54.627 365.326 54.4027 365.661 54.2461C365.995 54.0853 366.367 54.0049 366.778 54.0049C367.108 54.0049 367.406 54.0514 367.673 54.1445C367.944 54.2334 368.174 54.3794 368.365 54.5825C368.56 54.7856 368.708 55.0501 368.809 55.376C368.911 55.6976 368.962 56.0933 368.962 56.563V61H367.425V56.5566C367.425 56.2266 367.377 55.9663 367.279 55.7759C367.186 55.5812 367.049 55.4437 366.867 55.3633C366.689 55.2786 366.467 55.2363 366.2 55.2363C365.938 55.2363 365.703 55.2913 365.496 55.4014C365.288 55.5114 365.113 55.6616 364.969 55.8521C364.829 56.0425 364.721 56.2625 364.645 56.5122C364.569 56.7619 364.531 57.0285 364.531 57.312ZM373.471 54.1318V55.249H369.599V54.1318H373.471ZM370.717 52.4497H372.246V59.1021C372.246 59.3136 372.276 59.4766 372.335 59.5908C372.399 59.7008 372.485 59.7749 372.596 59.813C372.706 59.8511 372.835 59.8701 372.983 59.8701C373.089 59.8701 373.19 59.8638 373.287 59.8511C373.385 59.8384 373.463 59.8257 373.522 59.813L373.529 60.981C373.402 61.019 373.254 61.0529 373.084 61.0825C372.919 61.1121 372.729 61.127 372.513 61.127C372.162 61.127 371.851 61.0656 371.58 60.9429C371.309 60.8159 371.097 60.6107 370.945 60.3271C370.793 60.0436 370.717 59.667 370.717 59.1973V52.4497ZM381.342 59.1401C381.342 58.9878 381.304 58.8503 381.228 58.7275C381.152 58.6006 381.006 58.4863 380.79 58.3848C380.579 58.2832 380.265 58.1901 379.851 58.1055C379.487 58.0251 379.153 57.9299 378.848 57.8198C378.547 57.7056 378.289 57.568 378.073 57.4072C377.858 57.2464 377.69 57.056 377.572 56.8359C377.453 56.6159 377.394 56.362 377.394 56.0742C377.394 55.7949 377.456 55.5304 377.578 55.2808C377.701 55.0311 377.877 54.811 378.105 54.6206C378.334 54.4302 378.611 54.2799 378.937 54.1699C379.267 54.0599 379.635 54.0049 380.041 54.0049C380.617 54.0049 381.11 54.1022 381.52 54.2969C381.935 54.4873 382.252 54.7476 382.472 55.0776C382.692 55.4035 382.802 55.7716 382.802 56.1821H381.273C381.273 56.0002 381.226 55.8309 381.133 55.6743C381.044 55.5135 380.909 55.3844 380.727 55.2871C380.545 55.1855 380.316 55.1348 380.041 55.1348C379.779 55.1348 379.561 55.1771 379.387 55.2617C379.218 55.3421 379.091 55.4479 379.007 55.5791C378.926 55.7103 378.886 55.8542 378.886 56.0107C378.886 56.125 378.907 56.2287 378.949 56.3218C378.996 56.4106 379.072 56.4932 379.178 56.5693C379.284 56.6413 379.428 56.709 379.61 56.7725C379.796 56.8359 380.029 56.8973 380.308 56.9565C380.833 57.0666 381.283 57.2083 381.66 57.3818C382.041 57.5511 382.333 57.7712 382.536 58.042C382.739 58.3086 382.841 58.6471 382.841 59.0576C382.841 59.3623 382.775 59.6416 382.644 59.8955C382.517 60.1452 382.331 60.3631 382.085 60.5493C381.84 60.7313 381.546 60.873 381.203 60.9746C380.864 61.0762 380.483 61.127 380.06 61.127C379.438 61.127 378.911 61.0169 378.48 60.7969C378.048 60.5726 377.72 60.2869 377.496 59.9399C377.276 59.5887 377.166 59.2248 377.166 58.8481H378.645C378.662 59.1317 378.74 59.3581 378.88 59.5273C379.023 59.6924 379.201 59.813 379.413 59.8892C379.629 59.9611 379.851 59.9971 380.079 59.9971C380.354 59.9971 380.585 59.9611 380.771 59.8892C380.957 59.813 381.099 59.7114 381.196 59.5845C381.294 59.4533 381.342 59.3052 381.342 59.1401ZM387.008 61.127C386.5 61.127 386.041 61.0444 385.63 60.8794C385.224 60.7101 384.877 60.4753 384.589 60.1748C384.306 59.8743 384.088 59.521 383.935 59.1147C383.783 58.7085 383.707 58.2705 383.707 57.8008V57.5469C383.707 57.0094 383.785 56.5228 383.942 56.0869C384.098 55.651 384.316 55.2786 384.596 54.9697C384.875 54.6566 385.205 54.4175 385.586 54.2524C385.967 54.0874 386.379 54.0049 386.824 54.0049C387.315 54.0049 387.744 54.0874 388.112 54.2524C388.48 54.4175 388.785 54.6502 389.026 54.9507C389.272 55.2469 389.454 55.6003 389.572 56.0107C389.695 56.4212 389.756 56.874 389.756 57.3691V58.0229H384.45V56.9248H388.246V56.8042C388.237 56.5291 388.182 56.271 388.08 56.0298C387.983 55.7886 387.833 55.5939 387.63 55.4458C387.427 55.2977 387.156 55.2236 386.817 55.2236C386.563 55.2236 386.337 55.2786 386.138 55.3887C385.943 55.4945 385.78 55.6489 385.649 55.8521C385.518 56.0552 385.417 56.3006 385.345 56.5884C385.277 56.8719 385.243 57.1914 385.243 57.5469V57.8008C385.243 58.1012 385.283 58.3805 385.364 58.6387C385.448 58.8926 385.571 59.1147 385.732 59.3052C385.893 59.4956 386.087 59.6458 386.316 59.7559C386.544 59.8617 386.805 59.9146 387.097 59.9146C387.465 59.9146 387.793 59.8405 388.08 59.6924C388.368 59.5443 388.618 59.3348 388.829 59.064L389.636 59.8447C389.488 60.0605 389.295 60.2679 389.058 60.4668C388.821 60.6615 388.531 60.8201 388.188 60.9429C387.85 61.0656 387.456 61.127 387.008 61.127ZM392.286 55.4395V61H390.756V54.1318H392.216L392.286 55.4395ZM394.387 54.0874L394.374 55.5093C394.281 55.4924 394.179 55.4797 394.069 55.4712C393.964 55.4627 393.858 55.4585 393.752 55.4585C393.49 55.4585 393.259 55.4966 393.06 55.5728C392.861 55.6447 392.694 55.7505 392.559 55.8901C392.428 56.0256 392.326 56.1906 392.254 56.3853C392.182 56.5799 392.14 56.7979 392.127 57.0391L391.778 57.0645C391.778 56.6328 391.82 56.2329 391.905 55.8647C391.99 55.4966 392.116 55.1729 392.286 54.8936C392.459 54.6143 392.675 54.3963 392.933 54.2397C393.196 54.0832 393.498 54.0049 393.841 54.0049C393.934 54.0049 394.033 54.0133 394.139 54.0303C394.249 54.0472 394.332 54.0662 394.387 54.0874ZM397.494 59.7876L399.176 54.1318H400.763L398.376 61H397.386L397.494 59.7876ZM396.205 54.1318L397.919 59.813L398.002 61H397.012L394.612 54.1318H396.205ZM403.146 54.1318V61H401.61V54.1318H403.146ZM401.509 52.3291C401.509 52.0964 401.585 51.9038 401.737 51.7515C401.894 51.5949 402.11 51.5166 402.385 51.5166C402.656 51.5166 402.869 51.5949 403.026 51.7515C403.182 51.9038 403.261 52.0964 403.261 52.3291C403.261 52.5576 403.182 52.748 403.026 52.9004C402.869 53.0527 402.656 53.1289 402.385 53.1289C402.11 53.1289 401.894 53.0527 401.737 52.9004C401.585 52.748 401.509 52.5576 401.509 52.3291ZM407.428 59.9082C407.678 59.9082 407.902 59.8595 408.101 59.7622C408.304 59.6606 408.467 59.521 408.59 59.3433C408.717 59.1655 408.786 58.9603 408.799 58.7275H410.24C410.231 59.1719 410.1 59.576 409.846 59.9399C409.592 60.3039 409.256 60.5938 408.837 60.8096C408.418 61.0212 407.955 61.127 407.447 61.127C406.922 61.127 406.465 61.0381 406.076 60.8604C405.687 60.6784 405.363 60.4287 405.105 60.1113C404.847 59.7939 404.652 59.4279 404.521 59.0132C404.394 58.5985 404.33 58.1541 404.33 57.6802V57.458C404.33 56.984 404.394 56.5397 404.521 56.125C404.652 55.7061 404.847 55.3379 405.105 55.0205C405.363 54.7031 405.687 54.4556 406.076 54.2778C406.465 54.0959 406.92 54.0049 407.441 54.0049C407.991 54.0049 408.473 54.1149 408.888 54.335C409.303 54.5508 409.628 54.8534 409.865 55.2427C410.107 55.6278 410.231 56.0763 410.24 56.5884H408.799C408.786 56.3345 408.723 56.106 408.609 55.9028C408.499 55.6955 408.342 55.5304 408.139 55.4077C407.94 55.285 407.701 55.2236 407.422 55.2236C407.113 55.2236 406.857 55.2871 406.654 55.4141C406.45 55.5368 406.292 55.7061 406.177 55.9219C406.063 56.1335 405.981 56.3726 405.93 56.6392C405.883 56.9015 405.86 57.1745 405.86 57.458V57.6802C405.86 57.9637 405.883 58.2388 405.93 58.5054C405.976 58.772 406.057 59.0111 406.171 59.2227C406.29 59.43 406.45 59.5972 406.654 59.7241C406.857 59.8468 407.115 59.9082 407.428 59.9082ZM414.242 61.127C413.734 61.127 413.275 61.0444 412.865 60.8794C412.458 60.7101 412.111 60.4753 411.824 60.1748C411.54 59.8743 411.322 59.521 411.17 59.1147C411.017 58.7085 410.941 58.2705 410.941 57.8008V57.5469C410.941 57.0094 411.02 56.5228 411.176 56.0869C411.333 55.651 411.551 55.2786 411.83 54.9697C412.109 54.6566 412.439 54.4175 412.82 54.2524C413.201 54.0874 413.614 54.0049 414.058 54.0049C414.549 54.0049 414.978 54.0874 415.347 54.2524C415.715 54.4175 416.019 54.6502 416.261 54.9507C416.506 55.2469 416.688 55.6003 416.807 56.0107C416.929 56.4212 416.991 56.874 416.991 57.3691V58.0229H411.684V56.9248H415.48V56.8042C415.471 56.5291 415.416 56.271 415.315 56.0298C415.218 55.7886 415.067 55.5939 414.864 55.4458C414.661 55.2977 414.39 55.2236 414.052 55.2236C413.798 55.2236 413.571 55.2786 413.372 55.3887C413.178 55.4945 413.015 55.6489 412.884 55.8521C412.753 56.0552 412.651 56.3006 412.579 56.5884C412.511 56.8719 412.477 57.1914 412.477 57.5469V57.8008C412.477 58.1012 412.518 58.3805 412.598 58.6387C412.683 58.8926 412.805 59.1147 412.966 59.3052C413.127 59.4956 413.322 59.6458 413.55 59.7559C413.779 59.8617 414.039 59.9146 414.331 59.9146C414.699 59.9146 415.027 59.8405 415.315 59.6924C415.603 59.5443 415.852 59.3348 416.064 59.064L416.87 59.8447C416.722 60.0605 416.529 60.2679 416.292 60.4668C416.055 60.6615 415.766 60.8201 415.423 60.9429C415.084 61.0656 414.691 61.127 414.242 61.127Z" fill="white"/>
</g>
<defs>
<clipPath id="clip0_2744_71411">
<rect width="500" height="160" fill="white"/>
</clipPath>
</defs>
</svg>
